# xmcd CD database file
#
# Track frame offsets:
#	150
#	20262
#	36999
#	54042
#	69342
#	87435
#	101690
#	118846
#	138208
#	156826
#	177544
#	199162
#	217324
#	233686
#	250723
#	271366
#	287359
#	313846
#
# Disc length: 4233 seconds
#
# Revision: 0
# Processed by: cddbd v1.5.2PL0 Copyright (c) Steve Scherf et al.
# Submitted via: CDex 1.70beta2
#
DISCID=02108712
DTITLE=Guest Spot - 17 Classic Hits for Clarinet Full CD1
DYEAR=1999
DGENRE=Backing Tracks
TTITLE0=Circle Of Life (full)
TTITLE1=Candle In The Wind (full)
TTITLE2=Dancing Queen (full)
TTITLE3=Eternal Flame (full)
TTITLE4=(EveryThing I Do) I Do It For You (full)
TTITLE5=Every Breath You Take (full)
TTITLE6=Hey Jude (full)
TTITLE7=Falling Into You (full)
TTITLE8=I Am Blessed (full)
TTITLE9=I Believe I Can Fly (full)
TTITLE10=Killing Me Softly With His Song (full)
TTITLE11=One Day I'll Fly Away (full)
TTITLE12=Show Me Heaven (full)
TTITLE13=Love Is All Around (full)
TTITLE14=Take My Breath Away (full)
TTITLE15=Wonderful Tonight (full)
TTITLE16=Torn (full)
TTITLE17=_data
EXTD=YEAR: 1999
EXTT0=
EXTT1=
EXTT2=
EXTT3=
EXTT4=
EXTT5=
EXTT6=
EXTT7=
EXTT8=
EXTT9=
EXTT10=
EXTT11=
EXTT12=
EXTT13=
EXTT14=
EXTT15=
EXTT16=
EXTT17=
PLAYORDER=
